<svg xmlns="http://www.w3.org/2000/svg" version="1.0" width="200.000000pt" height="200.000000pt" viewBox="0 0 200.000000 200.000000" preserveAspectRatio="xMidYMid meet">

<g transform="translate(0.000000,200.000000) scale(0.100000,-0.100000)" fill="#000000" stroke="none">
<path d="M856 1989 c-308 -45 -598 -252 -740 -529 -323 -627 79 -1374 781 -1453 620 -69 1165 476 1096 1096 -63 563 -581 967 -1137 886z m319 -265 c143 -36 225 -93 225 -156 0 -37 -55 -116 -94 -134 -32 -16 -37 -15 -97 6 -35 13 -98 25 -139 28 -106 6 -159 -18 -248 -113 -75 -81 -116 -153 -134 -238 -10 -45 -10 -59 0 -69 9 -9 56 -13 165 -13 202 0 283 22 587 156 116 51 199 62 260 34 50 -23 70 -53 70 -108 0 -82 -69 -145 -170 -155 -29 -3 -87 5 -151 19 -80 18 -134 24 -234 24 -124 0 -133 -1 -189 -30 -109 -55 -233 -218 -239 -312 -2 -37 -1 -39 63 -71 135 -67 280 -76 428 -26 85 30 117 26 158 -17 35 -37 39 -94 8 -136 -27 -37 -188 -118 -274 -137 -98 -23 -258 -21 -354 4 -211 54 -382 193 -483 394 -70 138 -97 322 -68 461 69 333 319 565 655 608 55 7 189 -3 255 -19z"/>
</g>
</svg>